<?xml version="1.0" encoding="UTF-8"?>
<svg id="Layer_1" xmlns="http://www.w3.org/2000/svg" viewBox="0 0 1000 1000">
  <g>
    <g id="_x3C_Radial_Repeat_x3E_">
      <ellipse cx="505.02" cy="803.2" rx="76.82" ry="172.82" transform="translate(-13.21 8.46) rotate(-.95)"/>
    </g>
    <g id="_x3C_Radial_Repeat_x3E_-2" data-name="_x3C_Radial_Repeat_x3E_">
      <ellipse cx="308.95" cy="735.49" rx="172.82" ry="76.82" transform="translate(-456.86 512.03) rotate(-50.95)"/>
    </g>
    <g id="_x3C_Radial_Repeat_x3E_-3" data-name="_x3C_Radial_Repeat_x3E_">
      <ellipse cx="202.28" cy="557.59" rx="172.82" ry="76.82" transform="translate(-102.21 48.56) rotate(-10.95)"/>
    </g>
    <g id="_x3C_Radial_Repeat_x3E_-4" data-name="_x3C_Radial_Repeat_x3E_">
      <ellipse cx="234.91" cy="352.74" rx="76.82" ry="172.82" transform="translate(-187.52 386.8) rotate(-60.95)"/>
    </g>
    <g id="_x3C_Radial_Repeat_x3E_-5" data-name="_x3C_Radial_Repeat_x3E_">
      <ellipse cx="391.59" cy="216.8" rx="76.82" ry="172.82" transform="translate(-51.63 154.33) rotate(-20.95)"/>
    </g>
    <g id="_x3C_Radial_Repeat_x3E_-6" data-name="_x3C_Radial_Repeat_x3E_">
      <ellipse cx="598.99" cy="213.37" rx="172.82" ry="76.82" transform="translate(201.78 709.89) rotate(-70.95)"/>
    </g>
    <g id="_x3C_Radial_Repeat_x3E_-7" data-name="_x3C_Radial_Repeat_x3E_">
      <ellipse cx="760.07" cy="344.06" rx="172.82" ry="76.82" transform="translate(-68.73 439.85) rotate(-30.95)"/>
    </g>
    <g id="_x3C_Radial_Repeat_x3E_-8" data-name="_x3C_Radial_Repeat_x3E_">
      <ellipse cx="799.46" cy="547.71" rx="76.82" ry="172.82" transform="translate(132.79 1251.04) rotate(-80.95)"/>
    </g>
    <g id="_x3C_Radial_Repeat_x3E_-9" data-name="_x3C_Radial_Repeat_x3E_">
      <ellipse cx="698.73" cy="729.04" rx="76.82" ry="172.82" transform="translate(-306.82 636.32) rotate(-40.95)"/>
    </g>
  </g>
  <circle cx="500" cy="500" r="83.67"/>
</svg>